<?xml version="1.0" encoding="utf-8"?>
<!-- Generator: Adobe Illustrator 19.0.0, SVG Export Plug-In . SVG Version: 6.00 Build 0)  -->
<svg version="1.1" id="Layer_1" xmlns:svg="http://www.w3.org/2000/svg"
	 xmlns="http://www.w3.org/2000/svg" xmlns:xlink="http://www.w3.org/1999/xlink" x="0px" y="0px" viewBox="-84 205.6 810 150"
	 style="enable-background:new -84 205.6 810 150;" xml:space="preserve">
<polyline id="polyline3" points="356.2,343.3 459.5,343.3 459.5,330.7 373.9,330.7 373.9,290.3 438.2,290.3 438.2,277.5 
	373.9,277.5 373.9,240.4 459.5,240.4 459.5,227.8 356.2,227.8 356.2,343.3 "/>
<polyline id="polyline5" points="409.9,209.1 395.9,224.8 439.8,209.1 409.9,209.1 "/>
<polyline id="polyline7" points="632.8,330.7 632.8,227.8 616.6,227.8 616.6,343.3 721,343.3 721,330.7 632.8,330.7 "/>
<path id="path9" d="M526.4,227.8l-58.7,115.5h19.8l15-29.9h70.4l15.1,29.9h19.6L549,227.8H526.4 M509.9,298.9l27.7-55.1l28,55.1
	H509.9z"/>
<path id="path11" d="M300.2,295c26.5-7.1,29-26.7,28.9-33.8c-1.6-20.6-15.5-33.4-40.4-33.4h-72.8v115.5h16.6v-48.4h47.4l34.9,48.4
	h20.9C335.6,343.3,310.5,310.7,300.2,295 M286.4,281.2h-53.9v-39.7h55.8c12.8,0,20.1,6,22.7,13.6c1.7,5.2,0.6,12.1-2.2,16.7
	C304,279.5,295.2,281.2,286.4,281.2z"/>
<path id="path13" d="M116.2,208.3c-46.8,0-78.7,33-78.7,73c0,42.1,35.3,71.8,78.7,71.8c43.5,0,78.7-29.3,78.7-71.8
	C194.9,241.3,162.6,208.3,116.2,208.3 M115.6,338.7c-32.4,0-59.1-26-59.1-57.4c0-31.3,25.4-58.6,60.3-58.6c34,0,59.1,27.3,59.1,58.6
	C176,312.6,148,338.7,115.6,338.7z"/>
<polyline id="polyline15" points="-4.3,268.6 7.6,268.6 29.4,227.8 11.9,227.8 -4.3,268.6 "/>
<polyline id="polyline17" points="-62.9,330.7 -62.9,227.8 -79,227.8 -79,343.3 25.4,343.3 25.4,330.7 -62.9,330.7 "/>
</svg>
