<?xml version="1.0" encoding="utf-8"?>
<!-- Generator: Adobe Illustrator 19.0.0, SVG Export Plug-In . SVG Version: 6.00 Build 0)  -->
<svg version="1.1" id="Layer_1" xmlns="http://www.w3.org/2000/svg" xmlns:xlink="http://www.w3.org/1999/xlink" x="0px" y="0px"
	 viewBox="-334 156 310 250" style="enable-background:new -334 156 310 250;" xml:space="preserve">
<style type="text/css">
	.st0{fill:#FFC300;}
</style>
<path class="st0" d="M-132.5,179.8c23.3,0,42.3,98.4,42.3,219.7h33.8c0-130.7-34.1-236.6-76.1-236.6c-23.9,0-45.2,31.8-59.2,81.6
	c-13.9-49.8-35.3-81.6-59.2-81.6c-42,0-76.1,105.9-76.1,236.6h33.8c0-121.4,18.9-219.7,42.3-219.7c23.3,0,42.3,90.8,42.3,202.8h33.8
	C-174.8,270.6-155.9,179.8-132.5,179.8"/>
<path class="st0" d="M-39.5,382.6c4.6,0,8.4,3.6,8.4,8.4c0,4.9-3.8,8.5-8.4,8.5c-4.6,0-8.5-3.6-8.5-8.5
	C-48,386.2-44.1,382.6-39.5,382.6 M-39.5,398.3c3.9,0,6.9-3.1,6.9-7.2c0-4.1-3-7.2-6.9-7.2c-3.9,0-6.9,3.1-6.9,7.2
	C-46.5,395.1-43.5,398.3-39.5,398.3z M-42.8,386.1h3.8c2.3,0,3.4,0.9,3.4,2.8c0,1.8-1.1,2.5-2.6,2.7l2.8,4.4H-37l-2.7-4.2h-1.6v4.2
	h-1.5L-42.8,386.1L-42.8,386.1z M-41.3,390.5h1.6c1.3,0,2.6-0.1,2.6-1.6c0-1.3-1.1-1.5-2.2-1.5h-2L-41.3,390.5L-41.3,390.5z"/>
</svg>
