<?xml version="1.0" encoding="utf-8"?>
<!-- Generator: Adobe Illustrator 19.0.0, SVG Export Plug-In . SVG Version: 6.00 Build 0)  -->
<svg version="1.1" id="svg5358" xmlns:svg="http://www.w3.org/2000/svg"
	 xmlns="http://www.w3.org/2000/svg" xmlns:xlink="http://www.w3.org/1999/xlink" x="0px" y="0px" viewBox="-33 57.3 1213 473.7"
	 style="enable-background:new -33 57.3 1213 473.7;" xml:space="preserve">
<style type="text/css">
	.st0{fill:#706D6E;}
	.st1{fill:#F1511B;}
	.st2{fill:#80CC28;}
	.st3{fill:#00ADEF;}
	.st4{fill:#FBBC09;}
</style>
<path id="path5056" class="st0" d="M1070.7,270.1V252h-22.6v-28.3l-0.8,0.2l-21.2,6.5l-0.4,0.1V252h-33.5V240
	c0-5.6,1.2-9.8,3.7-12.6c2.4-2.8,5.9-4.2,10.3-4.2c3.2,0,6.5,0.8,9.8,2.2l0.8,0.4v-19.1l-0.4-0.1c-3.1-1.1-7.3-1.7-12.5-1.7
	c-6.6,0-12.6,1.4-17.8,4.3c-5.2,2.8-9.3,6.9-12.2,12.1c-2.9,5.2-4.3,11.1-4.3,17.7V252H954v18.2h15.7v76.6h22.6v-76.6h33.5v48.7
	c0,20,9.5,30.2,28.1,30.2c3.1,0,6.3-0.4,9.6-1.1c3.4-0.7,5.6-1.4,7-2.2l0.3-0.2v-18.3l-0.9,0.6c-1.2,0.8-2.8,1.5-4.5,2
	c-1.8,0.5-3.3,0.8-4.5,0.8c-4.4,0-7.6-1.2-9.6-3.5c-2-2.3-3.1-6.4-3.1-12.2v-44.7L1070.7,270.1L1070.7,270.1z M903.6,330.6
	c-8.2,0-14.6-2.7-19.2-8.1c-4.6-5.4-6.9-13-6.9-22.8c0-10,2.3-17.9,6.9-23.4c4.6-5.4,11-8.2,19-8.2c7.8,0,14.1,2.6,18.5,7.8
	c4.5,5.2,6.8,13,6.8,23.2c0,10.3-2.1,18.2-6.4,23.5C918.2,327.9,911.9,330.6,903.6,330.6 M904.6,249.7c-15.6,0-28,4.6-36.9,13.6
	c-8.8,9-13.3,21.5-13.3,37.2c0,14.8,4.4,26.8,13,35.5c8.6,8.7,20.4,13.1,34.9,13.1c15.1,0,27.3-4.6,36.2-13.8
	c8.8-9.1,13.3-21.5,13.3-36.8c0-15.1-4.2-27.1-12.5-35.7C931,254.1,919.4,249.7,904.6,249.7 M818,249.7c-10.6,0-19.4,2.7-26.1,8.1
	c-6.8,5.4-10.2,12.5-10.2,21c0,4.4,0.7,8.4,2.2,11.8c1.5,3.4,3.7,6.3,6.7,8.8c3,2.5,7.6,5,13.7,7.7c5.1,2.1,9,3.9,11.4,5.3
	c2.4,1.4,4.1,2.8,5,4.1c0.9,1.3,1.4,3.1,1.4,5.4c0,6.4-4.8,9.5-14.6,9.5c-3.6,0-7.8-0.8-12.3-2.3c-4.5-1.5-8.8-3.6-12.6-6.4
	l-0.9-0.7v21.7l0.3,0.2c3.2,1.5,7.2,2.7,12,3.7c4.7,1,9,1.5,12.8,1.5c11.5,0,20.8-2.7,27.6-8.1c6.8-5.4,10.3-12.7,10.3-21.5
	c0-6.4-1.9-11.9-5.5-16.3c-3.6-4.4-10-8.4-18.8-12c-7-2.8-11.5-5.2-13.4-7c-1.8-1.7-2.7-4.2-2.7-7.3c0-2.8,1.1-5,3.4-6.8
	c2.3-1.8,5.6-2.7,9.6-2.7c3.8,0,7.6,0.6,11.4,1.8c3.8,1.2,7.2,2.7,10,4.6l0.9,0.6v-20.6l-0.4-0.2c-2.6-1.1-6-2.1-10.1-2.8
	C825,250.1,821.3,249.7,818,249.7 M722.9,330.6c-8.2,0-14.6-2.7-19.2-8.1c-4.6-5.4-6.9-13-6.9-22.8c0-10,2.3-17.9,6.9-23.4
	c4.5-5.4,10.9-8.2,19-8.2c7.8,0,14.1,2.6,18.5,7.8c4.5,5.2,6.8,13,6.8,23.2c0,10.3-2.1,18.2-6.4,23.5
	C737.4,327.9,731.1,330.6,722.9,330.6 M723.9,249.7c-15.6,0-28,4.6-36.9,13.6c-8.8,9-13.3,21.5-13.3,37.2c0,14.8,4.4,26.8,13,35.5
	c8.6,8.7,20.4,13.1,34.9,13.1c15.1,0,27.3-4.6,36.2-13.8c8.8-9.1,13.3-21.5,13.3-36.8c0-15.1-4.2-27.1-12.5-35.7
	C750.3,254.1,738.6,249.7,723.9,249.7 M639.4,268.4V252h-22.3v94.8h22.3v-48.5c0-8.2,1.9-15,5.6-20.1c3.6-5.1,8.5-7.6,14.4-7.6
	c2,0,4.3,0.3,6.7,1c2.4,0.7,4.2,1.4,5.2,2.1l0.9,0.7v-22.5l-0.4-0.2c-2.1-0.9-5-1.3-8.7-1.3c-5.6,0-10.6,1.8-14.9,5.3
	c-3.8,3.1-6.5,7.4-8.6,12.7C639.6,268.4,639.4,268.4,639.4,268.4z M577.2,249.7c-10.2,0-19.3,2.2-27.1,6.5
	c-7.8,4.3-13.8,10.5-17.9,18.4c-4.1,7.8-6.1,17-6.1,27.2c0,9,2,17.2,6,24.4c4,7.3,9.6,12.9,16.7,16.9c7.1,3.9,15.3,5.9,24.4,5.9
	c10.6,0,19.6-2.1,26.9-6.3l0.3-0.2v-20.4l-0.9,0.7c-3.3,2.4-7,4.3-10.9,5.7c-3.9,1.4-7.5,2.1-10.7,2.1c-8.7,0-15.8-2.7-20.9-8.1
	c-5.1-5.4-7.7-13-7.7-22.5c0-9.6,2.7-17.4,8-23.1c5.3-5.7,12.3-8.6,20.9-8.6c7.3,0,14.5,2.5,21.2,7.4l0.9,0.7v-21.5l-0.3-0.2
	c-2.5-1.4-6-2.6-10.3-3.5C585.4,250.1,581.2,249.7,577.2,249.7 M510.7,252h-22.3v94.8h22.3V252z M499.8,211.6
	c-3.7,0-6.9,1.2-9.5,3.7c-2.6,2.5-4,5.6-4,9.3c0,3.6,1.3,6.7,3.9,9.1c2.6,2.4,5.8,3.6,9.5,3.6c3.7,0,7-1.2,9.6-3.6
	c2.6-2.4,4-5.5,4-9.1c0-3.6-1.3-6.7-3.9-9.2C506.9,212.9,503.7,211.6,499.8,211.6 M444.2,245v101.8h22.8V214.5h-31.5l-40,98.2
	l-38.8-98.2h-32.8v132.2h21.4V245h0.7l41,101.8h16.1L443.4,245L444.2,245L444.2,245z"/>
<path id="path5058" class="st1" d="M141.9,275.2H37V170.3h104.9V275.2z"/>
<path id="path5060" class="st2" d="M257.7,275.2H152.8V170.3h104.9V275.2z"/>
<path id="path5062" class="st3" d="M141.9,391H37V286.1h104.9V391z"/>
<path id="path5064" class="st4" d="M257.7,391H152.8V286.1h104.9V391z"/>
</svg>
