<?xml version="1.0" encoding="utf-8"?>
<!-- Generator: Adobe Illustrator 19.0.0, SVG Export Plug-In . SVG Version: 6.00 Build 0)  -->
<svg version="1.1" id="Nissan_Logo" xmlns="http://www.w3.org/2000/svg" xmlns:xlink="http://www.w3.org/1999/xlink" x="0px"
	 y="0px" viewBox="-444 140.5 350 280" style="enable-background:new -444 140.5 350 280;" xml:space="preserve">
<style type="text/css">
	.st0{fill:url(#SVGID_1_);}
	.st1{fill:url(#SVGID_2_);}
	.st2{fill:url(#SVGID_3_);}
	.st3{fill:url(#SVGID_4_);}
	.st4{fill:#FFFFFF;}
	.st5{fill:url(#SVGID_5_);}
	.st6{fill:url(#SVGID_6_);}
	.st7{fill:#8C8C8C;}
	.st8{fill:#4D4D4D;}
	.st9{fill:#252525;}
	.st10{fill:url(#NISSAN_1_);}
</style>
<title>Nissan Logo</title>
<desc>Für mehr Informationen siehe: http://de.wikipedia.org/wiki/Datei:Nissan_Logo.svg</desc>
<linearGradient id="SVGID_1_" gradientUnits="userSpaceOnUse" x1="-71.3998" y1="-78.7395" x2="-71.4001" y2="-288.0035" gradientTransform="matrix(1 0 0 -1 -197.6 77.01)">
	<stop  offset="0.1944" style="stop-color:#FFFFFF"/>
	<stop  offset="0.2085" style="stop-color:#F8F8F8"/>
	<stop  offset="0.3657" style="stop-color:#AEAEAE"/>
	<stop  offset="0.5133" style="stop-color:#707070"/>
	<stop  offset="0.6468" style="stop-color:#404040"/>
	<stop  offset="0.7637" style="stop-color:#1D1D1D"/>
	<stop  offset="0.8595" style="stop-color:#080808"/>
	<stop  offset="0.9222" style="stop-color:#000000"/>
</linearGradient>
<path class="st0" d="M-129.2,249.4c-2.7-0.8-5.9-1.2-12.3-2c-27-1.2-93.5-3.8-127.4-3.8s-100.4,2.6-127.4,3.8
	c-6.5,0.8-9.6,1.2-12.3,2c-8.6,2-10.4,5-10.4,11.1v41.6c0,6,6.5,10.2,11,11c4.5,0.9,7.4,1.2,12,1.7c24,1.5,80,4.7,127.1,4.7
	s103-3.2,127.1-4.7c4.7-0.5,7.5-0.8,12-1.7c4.5-0.8,11-5,11-11v-41.6C-118.9,254.4-120.7,251.4-129.2,249.4z"/>
<radialGradient id="SVGID_2_" cx="-155.6814" cy="-23.2644" r="209.3562" gradientTransform="matrix(1 0 0 -1 -197.6 77.01)" gradientUnits="userSpaceOnUse">
	<stop  offset="0.2022" style="stop-color:#FFFFFF"/>
	<stop  offset="0.3822" style="stop-color:#FDFDFD"/>
	<stop  offset="0.4874" style="stop-color:#F4F4F4"/>
	<stop  offset="0.5732" style="stop-color:#E6E6E6"/>
	<stop  offset="0.6483" style="stop-color:#D2D2D2"/>
	<stop  offset="0.6889" style="stop-color:#C4C4C4"/>
	<stop  offset="1" style="stop-color:#333333"/>
</radialGradient>
<path class="st1" d="M-377.1,251.1c13.2-46.1,56.7-79.9,108.5-79.9c51.5,0,95,33.6,108.4,79.6c0,0.2,0,0.3,0.2,0.5
	c7.7-0.9,14.6-2.3,19.4-3.5c-0.2-0.3-0.2-0.3-0.2-0.6C-156,192.2-207.5,152-268.5,152c-61.2,0-112.9,40.5-127.9,95.5
	C-389.7,249.3-384.7,250-377.1,251.1z"/>
<radialGradient id="SVGID_3_" cx="350.9804" cy="-358.5975" r="436.0161" gradientTransform="matrix(1 0 0 -1 -197.6 77.01)" gradientUnits="userSpaceOnUse">
	<stop  offset="0.2022" style="stop-color:#FFFFFF"/>
	<stop  offset="0.368" style="stop-color:#E4E4E4"/>
	<stop  offset="0.5944" style="stop-color:#C4C4C4"/>
	<stop  offset="1" style="stop-color:#333333"/>
</radialGradient>
<path class="st2" d="M-160.5,311.4c-0.2,0.5-0.3,0.9-0.3,1.1c-14.1,44.9-57,77.5-107.8,77.5c-51.2,0-94.3-33-108.1-78.5
	c-8.4,1.5-11.3,2.1-19.5,3.2c15.5,54.5,66.7,94.4,127.6,94.4s112.3-40.1,127.6-94.6C-148.3,313.7-152.5,312.9-160.5,311.4z"/>
<radialGradient id="SVGID_4_" cx="-105.3938" cy="-262.3791" r="133.8583" gradientTransform="matrix(1 0 0 -1 -197.6 77.01)" gradientUnits="userSpaceOnUse">
	<stop  offset="0.2022" style="stop-color:#FFFFFF"/>
	<stop  offset="0.368" style="stop-color:#E4E4E4"/>
	<stop  offset="0.5944" style="stop-color:#C4C4C4"/>
	<stop  offset="1" style="stop-color:#333333"/>
</radialGradient>
<path class="st3" d="M-374.2,250.9c3.2-1.4,6.3-3.5,11.1-4.8c14.4-37.2,51.3-63.8,94.7-63.8c43.2,0,80.2,26.4,94.6,63.5
	c0,0.2,0.2,0.3,0.2,0.3c2.6,0.9,9.8,3.8,12,4.8c0.3,0,1.1,0,1.7,0c0-0.2-0.2-0.3-0.2-0.5c-13.4-45.9-56.9-79.6-108.4-79.6
	c-51.6,0-95.2,33.8-108.5,79.9C-376.2,251.1-374.8,250.9-374.2,250.9z"/>
<path class="st4" d="M-269.3,174.2c48.3,0,91.3,28.8,107.5,76.4c0,0.2,0.2,0.3,0.2,0.5c0.3,0,1.2,0,1.7,0c0-0.2-0.2-0.3-0.2-0.5
	c-13.4-45.9-56.9-79.6-108.4-79.6c-51.6,0-95.2,33.8-108.5,79.9c1.1,0,1.5,0,2.7-0.2C-359.8,205.7-317.3,174.2-269.3,174.2z"/>
<radialGradient id="SVGID_5_" cx="2.6258" cy="-399.2537" r="253.9872" gradientTransform="matrix(1 0 0 -1 -197.6 77.01)" gradientUnits="userSpaceOnUse">
	<stop  offset="0.2022" style="stop-color:#FFFFFF"/>
	<stop  offset="0.368" style="stop-color:#E4E4E4"/>
	<stop  offset="0.5944" style="stop-color:#C4C4C4"/>
	<stop  offset="1" style="stop-color:#333333"/>
</radialGradient>
<path class="st5" d="M-163.2,311.6c-3.5,2-7.8,3.8-11.3,5c0,0.2-0.3,0.6-0.3,0.8c-15,36-51.3,61.5-93.8,61.5
	c-42.8,0-79.3-25.8-94.1-62.1c-4.1-1.1-9.9-3.8-12.2-5c-0.9,0-1.4,0-1.8-0.2c13.8,45.3,56.9,78.5,108.1,78.5
	c50.9,0,94-32.7,107.8-77.8c0-0.2,0.2-0.6,0.2-0.6C-161.2,311.4-162.6,311.6-163.2,311.6z"/>
<radialGradient id="SVGID_6_" cx="-73.4119" cy="-101.4292" r="201.8345" gradientTransform="matrix(1 0 0 -1 -197.6 77.01)" gradientUnits="userSpaceOnUse">
	<stop  offset="0.2022" style="stop-color:#FFFFFF"/>
	<stop  offset="0.3966" style="stop-color:#FDFDFD"/>
	<stop  offset="0.5101" style="stop-color:#F4F4F4"/>
	<stop  offset="0.6029" style="stop-color:#E6E6E6"/>
	<stop  offset="0.6839" style="stop-color:#D2D2D2"/>
	<stop  offset="0.7278" style="stop-color:#C4C4C4"/>
	<stop  offset="1" style="stop-color:#4D4D4D"/>
</radialGradient>
<path class="st6" d="M-131.6,252.4c-7.2-0.9-12-0.8-29.4-1.4c-0.8,0-1.7,0-2.4-0.2c-31.5-1.1-78.8-2.6-105.5-2.6
	s-74.2,1.5-105.5,2.6c-0.8,0-1.7,0-2.4,0.2c-17.4,0.6-22.2,0.5-29.4,1.4c-7.2,0.9-12.8,3.9-12.8,9.3v38.6c0,5.3,6.8,9.6,12.8,9.6
	c0,0,76.1,4.7,137.4,4.8c61.2,0,137.4-4.8,137.4-4.8c6,0,12.8-4.4,12.8-9.6v-38.6C-118.9,256.3-124.4,253.3-131.6,252.4z"/>
<path class="st4" d="M-163.2,311.6c-15,44.3-57,75.2-104.5,75.2c-48,0-90.5-28.4-107-75.2c-0.6,0-1.2,0-1.8-0.2
	c13.8,45.3,56.9,78.5,108.1,78.5s94.3-33.2,108.1-78.5C-161.4,311.4-162.3,311.6-163.2,311.6z"/>
<path class="st7" d="M-163.2,311.6L-163.2,311.6c-3.6,2-8,3.8-11.4,5c0,0.2-0.3,0.6-0.3,0.8c-4.8,11.4-11.6,21.8-20.1,30.6
	C-181.5,338-170.7,325.7-163.2,311.6z"/>
<path class="st8" d="M-339.3,350.6c-10.1-9.6-18-21.2-23.3-34.1c-4.1-1.1-9.9-3.8-12.2-5c2.4,5.1,5.3,9.8,8.4,14.3
	c6.6,8.6,14.7,16.4,23.7,22.8C-341.5,349.3-340.3,350-339.3,350.6z"/>
<path class="st9" d="M-376.6,311.4L-376.6,311.4L-376.6,311.4c-8.4,1.5-11.3,2.1-19.5,3.2c0.6,2.4,1.4,4.7,2.3,7.1L-376.6,311.4z"/>
<radialGradient id="NISSAN_1_" cx="-68.7354" cy="-121.6438" r="135.9452" gradientTransform="matrix(1 0 0 -1 -197.6 77.01)" gradientUnits="userSpaceOnUse">
	<stop  offset="0.1111" style="stop-color:#4D4D4D"/>
	<stop  offset="0.248" style="stop-color:#494949"/>
	<stop  offset="0.3546" style="stop-color:#404040"/>
	<stop  offset="0.451" style="stop-color:#2F2F2F"/>
	<stop  offset="0.5409" style="stop-color:#181818"/>
	<stop  offset="0.6111" style="stop-color:#000000"/>
</radialGradient>
<path id="NISSAN" class="st10" d="M-208.1,269.4c-2.6-5.6-1.7-5-7.1-5.1c-0.5-0.2-1.7-0.2-3.3-0.2c-1.7,0-2,0-3.3,0.2
	c-5.1,0-4.2-0.3-6,3.5c0,0-8.9,19.8-12.6,28.1l-0.2,0.3c-0.8,1.5-0.3,1.5,0.9,1.5h8c0.6,0,0.9-0.3,1.1-0.6c0,0,1.2-2.6,2.7-6h19.4
	c1.5,3.5,2.6,5.9,2.6,6c0.2,0.5,0.6,0.6,1.1,0.6h8.3c1.2,0,1.5,0.2,1.1-0.9C-197.1,293.1-206.7,272.5-208.1,269.4L-208.1,269.4z
	 M-224.9,284c2.6-5.9,5-11.6,5-11.7c0.2-0.3,0.5-0.5,0.9-0.5c0.2-0.2,0.6-0.2,1.1-0.2c0.3,0,0.8,0,0.9,0.2c0.3,0,0.6,0.2,0.8,0.6
	c0.6,1.7,2.9,6.6,4.8,11.6H-224.9L-224.9,284z M-331,263.8c0.8,0,0.9,0.3,0.9,0.9v31.5c0,0.8-0.2,1.1-1.1,1.1h-7.7
	c-0.9,0-1.1-0.2-1.1-1.1v-31.5c0-0.6,0.2-0.9,0.8-0.9H-331L-331,263.8z M-347.4,264.1c0.9,0,1.1,0.3,1.1,1.1v31.4
	c0,0.9-0.2,1.1-1.1,1.1h-9c-5.3,0-5.7,0-7.5-3c-3.6-5.7-14.7-22.7-14.7-22.7v24.6c0,0.9-0.2,1.1-1.1,1.1h-6.6
	c-0.9,0-1.1-0.2-1.1-1.1v-31.4c0-0.8,0.2-1.1,1.1-1.1c0,0,1.8,0,7.7,0c5.7,0,6.5-0.2,8.6,2.9c1.7,2.7,15,23.3,15,23.3v-25.1
	c0-0.8,0.2-1.1,1.1-1.1H-347.4L-347.4,264.1z M-150.7,264.1c0.9,0,1.1,0.3,1.1,1.1v31.4c0,0.9-0.2,1.1-1.1,1.1h-9
	c-5.3,0-5.7,0-7.5-3c-3.8-5.7-14.7-22.7-14.7-22.7v24.6c0,0.9-0.2,1.1-1.1,1.1h-6.6c-0.9,0-1.1-0.2-1.1-1.1v-31.4
	c0-0.8,0.2-1.1,1.1-1.1c0,0,1.8,0,7.7,0c5.7,0,6.5-0.2,8.6,2.9c1.8,2.7,15,23.3,15,23.3v-25.1c0-0.8,0.2-1.1,1.1-1.1H-150.7
	L-150.7,264.1z M-297.2,276.9c5.9,0.6,10.2,1.7,11.4,7.2c0,0.5,0.2,2,0.2,3.6c0,1.1,0,2.4-0.3,3.6c-1.1,5.3-5,6.3-11.3,6.3H-322
	c-0.9,0-1.1-0.2-1.1-1.1v-5.3c0-0.9,0.2-1.1,1.1-1.1c0,0,24.6,0,25.1,0c1.1,0,1.4-0.3,1.5-1.1c0-0.6,0-0.9,0-1.4s0-0.8,0-0.9
	c-0.2-0.6-0.3-1.5-1.7-1.7c-2.9-0.2-11.1-0.9-16.7-1.5c-7.2-0.8-9-3.8-9.3-6.5c-0.2-0.9-0.2-2.1-0.2-3.2c0-0.9,0-2.3,0.2-3.3
	c1.1-4.7,4.5-6.9,10.8-6.9h24c0.9,0,1.2,0.2,1.2,0.9v5.4c0,0.8-0.3,1.1-1.2,0.9c0,0-23,0-23.6,0c-1.1,0-1.5,0.5-1.7,1.5
	c0,0.2,0,0.3,0,0.6c0,0.3,0,0.5,0,0.8c0,0.8,0.5,1.4,1.5,1.5C-309.2,276-300.5,276.6-297.2,276.9L-297.2,276.9z M-254.7,276.9
	c5.9,0.6,10.2,1.7,11.4,7.2c0,0.5,0.2,2,0.2,3.6c0,1.1,0,2.4-0.3,3.6c-1.1,5.3-5,6.3-11.3,6.3h-24.6c-0.9,0-1.1-0.2-1.1-1.1v-5.3
	c0-0.9,0.2-1.1,1.1-1.1c0,0,24.6,0,25.1,0c1.1,0,1.4-0.3,1.5-1.1c0-0.6,0-0.9,0-1.4s0-0.8,0-0.9c-0.2-0.6-0.5-1.5-1.7-1.7
	c-2.9-0.2-11.1-0.9-16.7-1.5c-7.2-0.8-8.9-3.8-9.3-6.5c-0.2-0.9-0.2-2.1-0.2-3.2c0-0.9,0-2.3,0.2-3.3c1.1-4.7,4.5-6.9,10.8-6.9h24
	c0.9,0,1.2,0.2,1.2,0.9v5.4c0,0.8-0.3,1.1-1.2,0.9c0,0-23,0-23.6,0c-1.1,0-1.5,0.5-1.7,1.5c0,0.2,0,0.3,0,0.6c0,0.3,0,0.5,0,0.8
	c0,0.8,0.3,1.4,1.5,1.5C-266.6,276-257.9,276.6-254.7,276.9L-254.7,276.9z"/>
</svg>
